<?xml version="1.0" encoding="utf-8"?>
<!-- Generator: Adobe Illustrator 27.5.0, SVG Export Plug-In . SVG Version: 6.00 Build 0)  -->
<svg version="1.1" xmlns="http://www.w3.org/2000/svg" xmlns:xlink="http://www.w3.org/1999/xlink" x="0px" y="0px"
	 viewBox="0 0 500 500" style="enable-background:new 0 0 500 500;" xml:space="preserve">
<g id="Background_Simple">
	<g>
		<path style="fill:#92E3A9;" d="M496.145,240.506c-0.585-39.845-16.633-78.309-41.074-108.001
			c-14.299-17.37-31.504-32.587-50.288-44.436c-19.495-12.298-40.688-26.07-64.21-28.183c-5.805-0.521-11.758-0.272-17.487,1.394
			c-21.936,6.379,21.471,29.113,27.144,32.438c-60.67-25.313-123.467-51.031-189.786-48.606c-12.788,0.468-26.052,2.147-37.295,9.07
			c-11.242,6.923-19.943,20.276-18.269,33.512c1.384,10.941,8.958,23.164,1.854,31.715c-2.032,2.445-4.911,3.891-7.739,5.146
			c-14.507,6.44-30.169,9.817-43.912,18.01c-21.282,12.687-35.807,35.997-42.539,60.524c-6.732,24.527-6.409,50.299-3.766,75.247
			c4.973,46.954,18.496,93.536,45.863,130.051c39.091,52.158,103.179,78.725,167.373,83.103
			c77.678,5.298,161.896-22.451,213.261-86.674c7.618-9.525,14.603-20.078,17.374-32.024c2.771-11.946,0.576-25.558-7.952-33.403
			c-2.298-2.114-5.256-4.356-5.007-7.637c0.337-4.44,5.805-5.941,9.972-6.873c27.342-6.115,42.98-38.47,45.8-67.568
			C496.005,251.696,496.227,246.087,496.145,240.506z"/>
		<path style="opacity:0.8;fill:#FFFFFF;" d="M496.145,240.506c-0.585-39.845-16.633-78.309-41.074-108.001
			c-14.299-17.37-31.504-32.587-50.288-44.436c-19.495-12.298-40.688-26.07-64.21-28.183c-5.805-0.521-11.758-0.272-17.487,1.394
			c-21.936,6.379,21.471,29.113,27.144,32.438c-60.67-25.313-123.467-51.031-189.786-48.606c-12.788,0.468-26.052,2.147-37.295,9.07
			c-11.242,6.923-19.943,20.276-18.269,33.512c1.384,10.941,8.958,23.164,1.854,31.715c-2.032,2.445-4.911,3.891-7.739,5.146
			c-14.507,6.44-30.169,9.817-43.912,18.01c-21.282,12.687-35.807,35.997-42.539,60.524c-6.732,24.527-6.409,50.299-3.766,75.247
			c4.973,46.954,18.496,93.536,45.863,130.051c39.091,52.158,103.179,78.725,167.373,83.103
			c77.678,5.298,161.896-22.451,213.261-86.674c7.618-9.525,14.603-20.078,17.374-32.024c2.771-11.946,0.576-25.558-7.952-33.403
			c-2.298-2.114-5.256-4.356-5.007-7.637c0.337-4.44,5.805-5.941,9.972-6.873c27.342-6.115,42.98-38.47,45.8-67.568
			C496.005,251.696,496.227,246.087,496.145,240.506z"/>
	</g>
</g>
<g id="Tree">
	<g>
		<path style="fill:#92E3A9;" d="M94.87,189.431c-46.74,0-84.631,37.633-84.631,84.055c0,21.523,8.149,41.153,21.544,56.023
			c6.129-0.888,17.299-1.499,29.644,2.701c16.36,5.565,26.555,14.684,28.787,16.814h7.584c2.232-2.13,12.428-11.249,28.787-16.814
			c13.442-4.573,25.494-3.443,31.157-2.461c13.524-14.898,21.758-34.624,21.758-56.263
			C179.501,227.064,141.611,189.431,94.87,189.431z"/>
		<path style="opacity:0.5;fill:#FFFFFF;" d="M94.87,189.431c-46.74,0-84.631,37.633-84.631,84.055
			c0,21.523,8.149,41.153,21.544,56.023c6.129-0.888,17.299-1.499,29.644,2.701c16.36,5.565,26.555,14.684,28.787,16.814h7.584
			c2.232-2.13,12.428-11.249,28.787-16.814c13.442-4.573,25.494-3.443,31.157-2.461c13.524-14.898,21.758-34.624,21.758-56.263
			C179.501,227.064,141.611,189.431,94.87,189.431z"/>
		<path style="fill:#263238;" d="M62.297,312.47c2.384,1.508,4.677,3.104,6.855,4.865c4.385,3.471,8.481,7.261,12.424,11.172
			c3.445,3.421,6.798,6.96,9.993,10.55l-1.493,33.703l3.616,2.015l3.011-2.254l1.449,1.005l-1.244-33.019
			c3.572-4.09,7.374-8.119,11.283-12.001c3.943-3.911,8.039-7.701,12.424-11.172c2.178-1.761,4.471-3.357,6.855-4.865
			c2.422-1.497,4.885-2.941,7.376-4.347c4.992-2.794,10.102-5.44,15.433-7.698c-5.486,1.933-10.799,4.274-16.014,6.775
			c-2.603,1.259-5.184,2.562-7.731,3.92c-2.55,1.393-5.049,2.907-7.393,4.563c-0.885,0.612-1.75,1.246-2.615,1.879l13.863-25.826
			l-19.023,29.789c-1.927,1.55-3.821,3.133-5.679,4.747c-3.073,2.673-6.06,5.398-8.987,8.208l-0.966-28.018l19.902-30.304
			l-20.049,26.065l-0.865-25.076l-1.43,28.059l-0.005,0.006l0.004,0.002l-1.433,28.123c-2.542-2.405-5.127-4.757-7.78-7.065
			c-2.087-1.813-4.211-3.593-6.386-5.323l-17.997-30.735l13.219,27.113c-0.759-0.552-1.514-1.108-2.289-1.644
			c-2.344-1.656-4.843-3.17-7.393-4.563c-2.547-1.358-5.127-2.661-7.731-3.92c-5.214-2.501-10.528-4.843-16.014-6.775
			c5.33,2.258,10.44,4.904,15.433,7.698C57.413,309.529,59.875,310.974,62.297,312.47z"/>
	</g>
</g>
<g id="Floor">
	<polyline style="fill:none;stroke:#263238;stroke-linejoin:round;stroke-miterlimit:10;" points="6.377,372.522 9.387,374.775 
		12.398,372.522 15.41,374.775 18.421,372.522 21.432,374.775 24.442,372.522 27.452,374.775 30.461,372.522 33.471,374.775 
		36.481,372.522 39.492,374.775 42.503,372.522 45.515,374.775 48.527,372.522 51.537,374.775 54.548,372.522 57.558,374.775 
		60.568,372.522 63.579,374.775 66.59,372.522 69.602,374.775 72.614,372.522 75.625,374.775 78.635,372.522 81.646,374.775 
		84.657,372.522 87.668,374.775 90.68,372.522 93.692,374.775 96.703,372.522 99.714,374.775 102.725,372.522 105.736,374.775 
		108.749,372.522 111.761,374.775 114.772,372.522 117.783,374.775 120.795,372.522 123.807,374.775 126.819,372.522 
		129.831,374.775 132.842,372.522 135.854,374.775 138.867,372.522 141.879,374.775 144.89,372.522 147.902,374.775 
		150.915,372.522 153.927,374.775 156.939,372.522 159.951,374.775 162.964,372.522 165.976,374.775 168.988,372.522 
		171.997,374.775 175.007,372.522 178.02,374.775 181.031,372.522 184.041,374.775 187.051,372.522 190.063,374.775 
		193.076,372.522 196.087,374.775 199.098,372.522 202.11,374.775 205.123,372.522 208.135,374.775 211.147,372.522 214.16,374.775 
		217.172,372.522 220.186,374.775 223.198,372.522 226.211,374.775 229.224,372.522 232.238,374.775 235.251,372.522 
		238.265,374.775 241.28,372.522 244.294,374.775 247.308,372.522 250.321,374.775 253.333,372.522 256.346,374.775 
		259.361,372.522 262.375,374.775 265.39,372.522 268.405,374.775 271.419,372.522 274.436,374.775 277.454,372.522 
		280.473,374.775 280.379,374.775 283.39,372.522 286.402,374.775 289.413,372.522 292.424,374.775 295.434,372.522 
		298.443,374.775 301.453,372.522 304.463,374.775 307.473,372.522 310.484,374.775 313.495,372.522 316.507,374.775 
		319.518,372.522 322.529,374.775 325.539,372.522 328.549,374.775 331.56,372.522 334.57,374.775 337.581,372.522 340.594,374.775 
		343.605,372.522 346.616,374.775 349.627,372.522 352.638,374.775 355.648,372.522 358.66,374.775 361.672,372.522 
		364.684,374.775 367.695,372.522 370.706,374.775 373.717,372.522 376.728,374.775 379.74,372.522 382.752,374.775 
		385.764,372.522 388.775,374.775 391.786,372.522 394.798,374.775 397.811,372.522 400.822,374.775 403.834,372.522 
		406.846,374.775 409.858,372.522 412.87,374.775 415.882,372.522 418.894,374.775 421.907,372.522 424.919,374.775 
		427.931,372.522 430.943,374.775 433.956,372.522 436.967,374.775 439.98,372.522 442.989,374.775 445.999,372.522 
		449.011,374.775 452.023,372.522 455.033,374.775 458.043,372.522 461.054,374.775 464.068,372.522 467.079,374.775 
		470.09,372.522 473.102,374.775 476.115,372.522 479.126,374.775 482.139,372.522 485.152,374.775 487.866,372.744 	"/>
</g>
<g id="Grass">
	<polygon style="fill:#92E3A9;" points="458.383,427.227 452.518,431.227 446.65,427.227 440.78,431.227 434.911,427.227 
		429.04,431.227 423.171,427.227 417.303,431.227 411.434,427.227 405.566,431.227 399.698,427.227 393.831,431.227 
		387.963,427.227 382.098,431.227 376.229,427.227 370.363,431.227 364.499,427.227 358.631,431.227 352.766,427.227 
		346.902,431.227 341.038,427.227 335.17,431.227 329.306,427.227 323.444,431.227 317.582,427.227 311.717,431.227 305.85,427.227 
		299.988,431.227 294.129,427.227 288.262,431.227 282.397,427.227 276.53,431.227 270.664,427.227 264.799,431.227 
		258.933,427.227 253.065,431.227 247.2,427.227 241.335,431.227 235.47,427.227 229.603,431.227 223.737,427.227 217.873,431.227 
		212.008,427.227 206.142,431.227 200.276,427.227 194.411,431.227 188.548,427.227 182.683,431.227 176.817,427.227 
		170.951,431.227 165.087,427.227 159.223,431.227 153.36,427.227 147.496,431.227 141.63,427.227 135.764,431.227 129.9,427.227 
		124.037,431.227 118.174,427.227 112.311,431.227 106.448,427.227 100.582,431.227 69.82,438.633 132.099,438.633 80.309,445.205 
		113.088,446.4 100.632,450.583 320.248,450.583 292.714,445.205 388.428,445.205 373.35,451.778 466.441,451.778 450.051,442.218 
		497.692,438.633 468.407,434.451 	"/>
	<polygon style="opacity:0.5;" points="458.383,427.227 452.518,431.227 446.65,427.227 440.78,431.227 434.911,427.227 
		429.04,431.227 423.171,427.227 417.303,431.227 411.434,427.227 405.566,431.227 399.698,427.227 393.831,431.227 
		387.963,427.227 382.098,431.227 376.229,427.227 370.363,431.227 364.499,427.227 358.631,431.227 352.766,427.227 
		346.902,431.227 341.038,427.227 335.17,431.227 329.306,427.227 323.444,431.227 317.582,427.227 311.717,431.227 305.85,427.227 
		299.988,431.227 294.129,427.227 288.262,431.227 282.397,427.227 276.53,431.227 270.664,427.227 264.799,431.227 
		258.933,427.227 253.065,431.227 247.2,427.227 241.335,431.227 235.47,427.227 229.603,431.227 223.737,427.227 217.873,431.227 
		212.008,427.227 206.142,431.227 200.276,427.227 194.411,431.227 188.548,427.227 182.683,431.227 176.817,427.227 
		170.951,431.227 165.087,427.227 159.223,431.227 153.36,427.227 147.496,431.227 141.63,427.227 135.764,431.227 129.9,427.227 
		124.037,431.227 118.174,427.227 112.311,431.227 106.448,427.227 100.582,431.227 69.82,438.633 132.099,438.633 80.309,445.205 
		113.088,446.4 100.632,450.583 320.248,450.583 292.714,445.205 388.428,445.205 373.35,451.778 466.441,451.778 450.051,442.218 
		497.692,438.633 468.407,434.451 	"/>
</g>
<g id="Plants">
	<g>
		<path style="fill:#263238;" d="M122.992,407.88c1.339,0.359,4.4-0.172,4.403-0.172c0.032-0.006-0.963-1.912-1.039-2.025
			c-0.886-1.309-3.368-3.317-5.067-2.821c-1.224,0.357-1.731,1.712-1.272,2.846C120.485,406.866,121.852,407.573,122.992,407.88z"/>
		<path style="fill:#263238;" d="M143.825,440.994h1.108c-0.004-0.012-0.008-0.023-0.012-0.035
			c-0.287-0.802-0.609-1.653-0.948-2.524c0.192-0.112,1.282-0.756,2.224-1.486c1.042,0.835,3.508,1.626,3.827,1.725
			c-0.194,0.805-0.391,1.585-0.589,2.32h1.077c0.18-0.745,0.358-1.528,0.533-2.338c0.34,0.019,3.116,0.161,4.329-0.311
			c1.1-0.429,2.382-1.28,2.723-2.483c0.333-1.177-0.318-2.469-1.574-2.691c-1.743-0.308-3.992,1.957-4.731,3.355
			c-0.044,0.082-0.417,1.03-0.642,1.631c0.079-0.373,0.159-0.735,0.236-1.121c0.156-0.762,0.29-1.526,0.436-2.348
			c0.057-0.4,0.114-0.803,0.173-1.211c0.066-0.403,0.085-0.837,0.129-1.259c0.083-0.982,0.12-1.98,0.134-2.986
			c0.667,0.135,3.044,0.581,4.201,0.323c1.152-0.257,2.548-0.904,3.067-2.041c0.508-1.113,0.06-2.489-1.148-2.898
			c-1.676-0.568-4.243,1.33-5.185,2.599c-0.059,0.079-0.632,1.066-0.937,1.614c0.004-0.605,0.011-1.209-0.005-1.822
			c-0.046-1.768-0.147-3.556-0.24-5.34c-0.029-0.546-0.051-1.091-0.075-1.637c0.237,0.051,3.05,0.642,4.346,0.353
			c1.152-0.257,2.549-0.904,3.067-2.041c0.508-1.113,0.06-2.489-1.148-2.898c-1.676-0.568-4.242,1.33-5.184,2.599
			c-0.071,0.096-0.894,1.517-1.086,1.888c-0.053-1.201-0.094-2.399-0.087-3.581c0.007-1.631,0.105-3.231,0.314-4.774
			c0.11,0.024,3.043,0.654,4.371,0.358c1.152-0.257,2.549-0.905,3.067-2.041c0.508-1.113,0.06-2.489-1.148-2.898
			c-1.676-0.568-4.243,1.33-5.185,2.599c-0.074,0.1-0.959,1.629-1.099,1.918c0.013-0.092,0.016-0.188,0.029-0.28
			c0.244-1.644,0.687-3.207,1.173-4.649c0.281-0.839,0.596-1.625,0.92-2.383c0.534,0.173,2.985,0.939,4.209,0.805
			c1.174-0.129,2.633-0.619,3.273-1.692c0.627-1.051,0.333-2.467-0.822-3.007c-1.604-0.749-4.363,0.856-5.439,2.014
			c-0.058,0.063-0.582,0.769-0.956,1.289c0.151-0.34,0.301-0.693,0.453-1.016c0.566-1.213,1.16-2.288,1.693-3.237
			c0.307-0.537,0.596-1.016,0.871-1.462c0.613-0.103,3.078-0.551,4.085-1.222c0.982-0.655,2.051-1.763,2.125-3.01
			c0.072-1.221-0.842-2.343-2.116-2.29c-1.768,0.074-3.478,2.77-3.899,4.294c-0.036,0.132-0.369,2.256-0.337,2.251
			c0,0,0.03-0.005,0.037-0.006c-0.273,0.424-0.561,0.881-0.866,1.387c-0.555,0.939-1.173,2.004-1.768,3.209
			c-0.598,1.203-1.213,2.527-1.736,3.979c-0.526,1.456-1.004,3.013-1.29,4.682c-0.003,0.019-0.004,0.039-0.007,0.058
			c-0.068-0.514-0.306-1.945-0.337-2.053c-0.434-1.52-2.166-4.202-3.935-4.261c-1.274-0.042-2.178,1.087-2.096,2.308
			c0.085,1.247,1.163,2.345,2.15,2.992c1.114,0.729,3.967,1.169,4.194,1.203c-0.257,1.592-0.392,3.246-0.436,4.928
			c-0.026,0.962-0.023,1.931-0.007,2.903c-0.073-0.443-0.142-0.838-0.158-0.892c-0.434-1.52-2.166-4.201-3.935-4.261
			c-1.275-0.043-2.179,1.087-2.096,2.307c0.084,1.247,1.163,2.345,2.15,2.992c1.002,0.656,3.427,1.08,4.07,1.183
			c0.01,0.373,0.016,0.745,0.027,1.118c0.054,1.788,0.116,3.572,0.123,5.324c0.003,0.617-0.017,1.225-0.035,1.834
			c-0.065-0.393-0.124-0.723-0.138-0.773c-0.434-1.52-2.166-4.201-3.935-4.261c-1.275-0.042-2.179,1.087-2.096,2.308
			c0.084,1.246,1.163,2.345,2.151,2.991c0.956,0.626,3.191,1.038,3.955,1.164c-0.037,0.623-0.073,1.246-0.137,1.848
			c-0.053,0.41-0.076,0.808-0.152,1.217c-0.067,0.406-0.133,0.808-0.198,1.207c-0.155,0.762-0.309,1.55-0.478,2.289
			c-0.114,0.516-0.232,1.005-0.349,1.497c0.004-0.615-0.012-1.818-0.025-1.918c-0.132-1.042-0.755-2.674-1.667-3.751
			c-0.018-0.154-0.05-0.305-0.097-0.454c-0.372-1.166-1.627-1.884-2.797-1.376c-1.624,0.705-2.25,3.835-2.095,5.408
			c0.009,0.093,0.22,1.089,0.364,1.715c-0.141-0.355-0.273-0.702-0.422-1.065c-0.29-0.721-0.601-1.433-0.932-2.2
			c-0.173-0.365-0.348-0.732-0.524-1.105c-0.167-0.372-0.391-0.745-0.587-1.121c-0.472-0.864-0.993-1.717-1.536-2.565
			c0.631-0.255,2.859-1.194,3.682-2.048c0.82-0.85,1.627-2.161,1.432-3.395c-0.191-1.209-1.323-2.109-2.556-1.784
			c-1.712,0.451-2.805,3.45-2.891,5.028c-0.005,0.099,0.061,1.238,0.109,1.863c-0.33-0.507-0.658-1.014-1.009-1.517
			c-1.013-1.449-2.084-2.885-3.146-4.322c-0.326-0.44-0.645-0.882-0.966-1.324c0.226-0.089,2.898-1.147,3.82-2.104
			c0.819-0.85,1.627-2.16,1.432-3.395c-0.191-1.208-1.323-2.109-2.556-1.784c-1.712,0.451-2.805,3.45-2.891,5.028
			c-0.006,0.119,0.091,1.758,0.136,2.174c-0.707-0.972-1.402-1.948-2.049-2.938c-0.893-1.365-1.695-2.753-2.372-4.155
			c0.105-0.041,2.899-1.134,3.843-2.113c0.82-0.85,1.627-2.16,1.432-3.395c-0.19-1.208-1.323-2.109-2.556-1.784
			c-1.712,0.451-2.805,3.45-2.89,5.028c-0.007,0.124,0.099,1.888,0.141,2.206c-0.04-0.083-0.091-0.165-0.13-0.249
			c-0.704-1.507-1.196-3.054-1.586-4.526c-0.228-0.854-0.399-1.684-0.546-2.495c0.541-0.15,3.007-0.864,3.954-1.651
			c0.908-0.755,1.854-1.969,1.797-3.217c-0.057-1.222-1.083-2.242-2.345-2.054c-1.751,0.26-3.167,3.121-3.425,4.68
			c-0.014,0.085-0.062,0.963-0.087,1.603c-0.061-0.367-0.131-0.745-0.183-1.097c-0.197-1.324-0.295-2.549-0.374-3.634
			c-0.04-0.618-0.063-1.177-0.08-1.7c0.454-0.425,2.263-2.158,2.732-3.273c0.458-1.088,0.738-2.601,0.112-3.682
			c-0.614-1.059-1.995-1.49-3.027-0.743c-1.434,1.038-1.372,4.229-0.883,5.732c0.042,0.13,0.937,2.085,0.961,2.063
			c0,0,0.022-0.021,0.027-0.026c0.006,0.504,0.018,1.044,0.043,1.634c0.055,1.089,0.127,2.319,0.296,3.652
			c0.165,1.333,0.382,2.777,0.748,4.277c0.365,1.504,0.825,3.067,1.507,4.617c0.008,0.018,0.018,0.035,0.026,0.052
			c-0.34-0.391-1.329-1.453-1.414-1.526c-1.2-1.028-4.124-2.309-5.632-1.383c-1.086,0.668-1.218,2.108-0.475,3.081
			c0.758,0.993,2.263,1.314,3.444,1.309c1.332-0.006,3.954-1.213,4.162-1.31c0.664,1.47,1.464,2.924,2.355,4.351
			c0.508,0.816,1.046,1.623,1.595,2.425c-0.305-0.329-0.581-0.62-0.623-0.657c-1.201-1.028-4.125-2.309-5.632-1.383
			c-1.087,0.667-1.218,2.108-0.475,3.081c0.758,0.993,2.264,1.315,3.444,1.309c1.198-0.005,3.454-0.99,4.048-1.259
			c0.214,0.306,0.424,0.613,0.639,0.917c1.032,1.462,2.068,2.915,3.04,4.373c0.343,0.513,0.662,1.031,0.983,1.549
			c-0.271-0.292-0.502-0.535-0.542-0.569c-1.2-1.028-4.124-2.309-5.632-1.383c-1.087,0.667-1.218,2.108-0.475,3.081
			c0.758,0.993,2.263,1.315,3.444,1.309c1.143-0.005,3.234-0.895,3.941-1.211c0.313,0.54,0.627,1.08,0.906,1.617
			c0.182,0.371,0.383,0.715,0.545,1.098c0.169,0.376,0.335,0.748,0.5,1.116c0.292,0.72,0.598,1.463,0.865,2.173
			c0.189,0.493,0.361,0.966,0.535,1.442c-0.336-0.515-1.013-1.51-1.08-1.586c-1.03-1.198-3.727-2.907-5.358-2.22
			c-1.175,0.495-1.523,1.899-0.936,2.973c0.599,1.097,2.038,1.642,3.206,1.816c1.286,0.191,3.955-0.562,4.288-0.658
			C143.378,439.694,143.609,440.355,143.825,440.994z"/>
		<path style="fill:#263238;" d="M154.169,403.882c0.03,0.013,0.252-2.126,0.25-2.262c-0.018-1.58-0.98-4.624-2.671-5.148
			c-1.218-0.378-2.388,0.473-2.63,1.672c-0.248,1.224,0.502,2.569,1.284,3.453C151.32,402.635,154.167,403.881,154.169,403.882z"/>
	</g>
	<g>
		<path style="fill:#263238;" d="M313.22,420.915c0.862,0.232,2.834-0.111,2.836-0.111c0.02-0.004-0.62-1.232-0.669-1.304
			c-0.571-0.843-2.17-2.136-3.264-1.817c-0.789,0.23-1.115,1.103-0.819,1.833C311.605,420.262,312.485,420.718,313.22,420.915z"/>
		<path style="fill:#263238;" d="M326.638,442.244h0.714c-0.003-0.008-0.005-0.015-0.008-0.023
			c-0.185-0.516-0.392-1.065-0.611-1.626c0.124-0.072,0.826-0.487,1.433-0.957c0.671,0.538,2.26,1.047,2.465,1.111
			c-0.125,0.518-0.252,1.021-0.379,1.494h0.694c0.116-0.48,0.231-0.984,0.344-1.506c0.219,0.013,2.007,0.104,2.788-0.2
			c0.708-0.276,1.534-0.825,1.754-1.599c0.215-0.758-0.205-1.59-1.014-1.733c-1.122-0.198-2.571,1.261-3.047,2.161
			c-0.028,0.053-0.268,0.663-0.414,1.051c0.051-0.241,0.103-0.474,0.152-0.722c0.101-0.491,0.187-0.983,0.281-1.513
			c0.037-0.257,0.074-0.517,0.111-0.78c0.042-0.26,0.055-0.539,0.083-0.811c0.054-0.632,0.077-1.275,0.086-1.924
			c0.43,0.087,1.96,0.374,2.706,0.208c0.742-0.166,1.641-0.583,1.975-1.315c0.327-0.717,0.039-1.603-0.739-1.867
			c-1.08-0.366-2.733,0.857-3.339,1.674c-0.038,0.051-0.407,0.686-0.603,1.039c0.002-0.39,0.007-0.779-0.003-1.173
			c-0.029-1.139-0.095-2.29-0.154-3.44c-0.019-0.352-0.033-0.703-0.048-1.054c0.153,0.033,1.964,0.413,2.8,0.227
			c0.742-0.165,1.642-0.583,1.976-1.315c0.327-0.717,0.039-1.603-0.739-1.867c-1.08-0.366-2.733,0.857-3.339,1.674
			c-0.046,0.062-0.576,0.977-0.699,1.216c-0.034-0.774-0.061-1.545-0.056-2.306c0.005-1.051,0.068-2.081,0.202-3.075
			c0.071,0.015,1.96,0.421,2.816,0.231c0.742-0.165,1.642-0.583,1.976-1.315c0.327-0.717,0.039-1.603-0.739-1.867
			c-1.08-0.366-2.733,0.857-3.34,1.674c-0.048,0.064-0.617,1.049-0.708,1.235c0.008-0.059,0.01-0.121,0.019-0.18
			c0.157-1.059,0.442-2.066,0.756-2.995c0.181-0.54,0.384-1.047,0.593-1.535c0.344,0.112,1.923,0.605,2.711,0.518
			c0.756-0.083,1.696-0.399,2.108-1.09c0.404-0.677,0.215-1.589-0.53-1.937c-1.033-0.482-2.81,0.551-3.503,1.297
			c-0.038,0.04-0.375,0.495-0.616,0.83c0.097-0.219,0.194-0.447,0.292-0.654c0.365-0.781,0.747-1.474,1.09-2.085
			c0.198-0.346,0.384-0.655,0.561-0.942c0.395-0.066,1.983-0.355,2.631-0.787c0.632-0.422,1.321-1.135,1.369-1.939
			c0.046-0.787-0.542-1.509-1.363-1.475c-1.139,0.048-2.24,1.784-2.511,2.766c-0.023,0.085-0.238,1.453-0.217,1.45
			c0,0,0.019-0.003,0.024-0.004c-0.176,0.273-0.361,0.567-0.557,0.893c-0.358,0.605-0.756,1.291-1.139,2.067
			c-0.385,0.775-0.781,1.627-1.118,2.563c-0.339,0.938-0.647,1.941-0.831,3.016c-0.002,0.012-0.003,0.025-0.005,0.037
			c-0.044-0.331-0.197-1.253-0.217-1.322c-0.28-0.979-1.395-2.706-2.535-2.745c-0.821-0.027-1.403,0.7-1.35,1.486
			c0.055,0.803,0.749,1.51,1.385,1.927c0.717,0.47,2.555,0.753,2.702,0.775c-0.166,1.025-0.253,2.091-0.281,3.174
			c-0.017,0.62-0.015,1.244-0.005,1.87c-0.047-0.285-0.091-0.54-0.101-0.574c-0.28-0.979-1.395-2.706-2.535-2.744
			c-0.821-0.027-1.403,0.7-1.35,1.486c0.054,0.803,0.749,1.511,1.385,1.927c0.646,0.423,2.208,0.696,2.622,0.762
			c0.007,0.24,0.01,0.48,0.018,0.72c0.035,1.152,0.075,2.301,0.079,3.429c0.002,0.398-0.011,0.789-0.022,1.181
			c-0.042-0.253-0.08-0.466-0.089-0.498c-0.28-0.979-1.395-2.706-2.534-2.744c-0.821-0.027-1.404,0.7-1.35,1.486
			c0.054,0.803,0.749,1.51,1.385,1.927c0.616,0.404,2.056,0.668,2.547,0.75c-0.024,0.401-0.047,0.803-0.088,1.19
			c-0.034,0.264-0.049,0.52-0.098,0.784c-0.043,0.262-0.086,0.521-0.128,0.777c-0.1,0.491-0.199,0.998-0.308,1.475
			c-0.073,0.332-0.149,0.647-0.225,0.965c0.003-0.396-0.008-1.171-0.016-1.236c-0.085-0.671-0.486-1.722-1.074-2.416
			c-0.012-0.099-0.032-0.197-0.063-0.292c-0.239-0.751-1.048-1.214-1.802-0.887c-1.046,0.454-1.449,2.47-1.349,3.483
			c0.006,0.06,0.142,0.701,0.235,1.105c-0.091-0.229-0.176-0.452-0.272-0.686c-0.187-0.465-0.387-0.923-0.6-1.417
			c-0.111-0.235-0.224-0.472-0.338-0.712c-0.108-0.24-0.252-0.48-0.378-0.722c-0.304-0.557-0.639-1.106-0.989-1.652
			c0.407-0.165,1.842-0.769,2.372-1.319c0.528-0.547,1.048-1.392,0.923-2.186c-0.123-0.779-0.852-1.358-1.646-1.149
			c-1.103,0.29-1.807,2.222-1.862,3.239c-0.003,0.063,0.039,0.797,0.07,1.2c-0.213-0.326-0.424-0.654-0.65-0.977
			c-0.652-0.934-1.342-1.858-2.026-2.784c-0.21-0.283-0.415-0.568-0.622-0.853c0.145-0.057,1.867-0.739,2.461-1.355
			c0.528-0.547,1.048-1.391,0.922-2.186c-0.123-0.778-0.852-1.358-1.646-1.149c-1.103,0.29-1.807,2.222-1.862,3.239
			c-0.004,0.077,0.059,1.133,0.088,1.4c-0.455-0.626-0.903-1.255-1.32-1.893c-0.576-0.879-1.092-1.773-1.528-2.676
			c0.068-0.027,1.867-0.73,2.476-1.361c0.528-0.547,1.048-1.391,0.922-2.186c-0.123-0.779-0.852-1.358-1.647-1.149
			c-1.102,0.29-1.807,2.222-1.862,3.239c-0.004,0.08,0.064,1.216,0.091,1.421c-0.026-0.054-0.059-0.106-0.084-0.16
			c-0.453-0.971-0.77-1.967-1.022-2.915c-0.147-0.55-0.257-1.085-0.352-1.607c0.349-0.097,1.937-0.556,2.547-1.064
			c0.585-0.486,1.194-1.268,1.157-2.072c-0.037-0.787-0.698-1.444-1.51-1.323c-1.128,0.167-2.04,2.01-2.206,3.015
			c-0.009,0.055-0.04,0.62-0.056,1.032c-0.039-0.236-0.084-0.48-0.117-0.707c-0.127-0.853-0.19-1.642-0.241-2.34
			c-0.025-0.398-0.041-0.758-0.051-1.095c0.292-0.273,1.458-1.39,1.76-2.108c0.295-0.701,0.476-1.676,0.072-2.372
			c-0.395-0.682-1.285-0.96-1.95-0.479c-0.924,0.668-0.884,2.724-0.569,3.692c0.027,0.083,0.604,1.343,0.619,1.329
			c0,0,0.014-0.013,0.018-0.016c0.004,0.324,0.012,0.673,0.028,1.052c0.035,0.702,0.082,1.494,0.191,2.353
			c0.106,0.859,0.246,1.788,0.482,2.755c0.235,0.969,0.531,1.976,0.971,2.974c0.005,0.011,0.012,0.022,0.017,0.034
			c-0.219-0.252-0.856-0.936-0.911-0.983c-0.773-0.662-2.656-1.487-3.628-0.891c-0.7,0.43-0.784,1.358-0.306,1.984
			c0.488,0.64,1.458,0.846,2.218,0.843c0.858-0.004,2.547-0.782,2.681-0.844c0.428,0.947,0.943,1.883,1.517,2.803
			c0.328,0.526,0.674,1.045,1.027,1.562c-0.197-0.212-0.374-0.4-0.402-0.423c-0.773-0.662-2.657-1.488-3.628-0.891
			c-0.7,0.43-0.784,1.358-0.306,1.984c0.488,0.64,1.458,0.847,2.218,0.843c0.772-0.003,2.225-0.638,2.607-0.811
			c0.138,0.197,0.273,0.395,0.412,0.591c0.665,0.942,1.332,1.878,1.958,2.817c0.221,0.331,0.426,0.664,0.633,0.998
			c-0.175-0.188-0.324-0.345-0.349-0.366c-0.773-0.662-2.656-1.487-3.628-0.891c-0.7,0.43-0.784,1.358-0.306,1.984
			c0.488,0.64,1.458,0.847,2.218,0.843c0.736-0.003,2.083-0.577,2.538-0.78c0.201,0.348,0.404,0.695,0.583,1.041
			c0.117,0.239,0.247,0.461,0.351,0.707c0.109,0.242,0.216,0.482,0.322,0.719c0.188,0.464,0.385,0.942,0.557,1.4
			c0.122,0.317,0.233,0.622,0.345,0.929c-0.216-0.332-0.653-0.972-0.695-1.022c-0.664-0.772-2.4-1.872-3.451-1.43
			c-0.757,0.319-0.981,1.223-0.603,1.915c0.386,0.706,1.313,1.058,2.065,1.169c0.828,0.123,2.548-0.362,2.762-0.424
			C326.35,441.407,326.499,441.833,326.638,442.244z"/>
		<path style="fill:#263238;" d="M333.301,418.34c0.019,0.008,0.162-1.369,0.161-1.457c-0.011-1.018-0.631-2.979-1.72-3.316
			c-0.784-0.243-1.538,0.305-1.694,1.077c-0.16,0.789,0.323,1.655,0.827,2.224C331.466,417.537,333.3,418.339,333.301,418.34z"/>
	</g>
</g>
<g id="Fence">
	<g>
		<rect x="13.69" y="354.901" style="fill:#263238;" width="475.826" height="3.794"/>
		<rect x="13.69" y="363.122" style="fill:#263238;" width="475.826" height="3.794"/>
		<rect x="470.861" y="355.085" style="fill:#263238;" width="2.893" height="21.879"/>
		<rect x="364.975" y="355.085" style="fill:#263238;" width="2.893" height="21.879"/>
		<rect x="259.09" y="355.085" style="fill:#263238;" width="2.893" height="21.879"/>
		<rect x="153.205" y="355.085" style="fill:#263238;" width="2.893" height="21.879"/>
		<rect x="47.32" y="355.085" style="fill:#263238;" width="2.893" height="21.879"/>
	</g>
</g>
<g id="Clouds">
	<path style="fill:none;stroke:#263238;stroke-miterlimit:10;" d="M419.907,127.66c-6.179-27.761-38.177-48.45-66.069-44.486
		c-6.952,0.988-13.715,3.589-18.937,8.394c-7.122,6.553-5.432,13.991-8.959,22.11c-0.979,2.254-2.887,4.255-5.312,4.672
		c-6.936,1.189-12.525-5.725-19.548-5.777c-5.252-0.038-11.965,2.863-14.894,7.397c-2.727,4.222-0.827,11.592-5.736,14.395
		c-5.49,3.135-12.167-2.829-18.102-0.671c-7.375,2.682-4.023,8.046-6.704,11.398c-2.682,3.352-8.046,2.011-15.421,1.341
		c-7.375-0.67-13.409,8.046-13.409,8.046h232.65c0,0,2.011-3.352-6.705-16.762c-8.716-13.409-20.784-4.023-26.148-4.023
		C421.252,133.695,419.909,127.671,419.907,127.66z"/>
	<path style="fill:none;stroke:#263238;stroke-miterlimit:10;" d="M225.703,64.367c-2.667-11.984-16.48-20.915-28.521-19.204
		c-3.001,0.427-5.92,1.549-8.175,3.624c-3.074,2.829-2.345,6.04-3.867,9.544c-0.423,0.973-1.246,1.837-2.293,2.017
		c-2.994,0.513-5.407-2.472-8.439-2.494c-2.267-0.017-5.165,1.236-6.43,3.193c-1.177,1.823-0.357,5.004-2.476,6.214
		c-2.37,1.353-5.252-1.221-7.814-0.29c-3.184,1.158-1.736,3.473-2.894,4.92c-1.158,1.447-3.473,0.868-6.657,0.579
		c-3.184-0.289-5.788,3.473-5.788,3.473h100.43c0,0,0.868-1.447-2.894-7.236c-3.762-5.788-8.972-1.737-11.288-1.737
		C226.284,66.972,225.704,64.371,225.703,64.367z"/>
	<path style="fill:none;stroke:#263238;stroke-miterlimit:10;" d="M111.907,147.958c-2.667-11.984-16.48-20.915-28.521-19.204
		c-3.001,0.426-5.92,1.549-8.175,3.624c-3.074,2.829-2.345,6.039-3.867,9.544c-0.423,0.973-1.246,1.837-2.293,2.017
		c-2.994,0.513-5.407-2.471-8.439-2.494c-2.267-0.016-5.165,1.236-6.429,3.193c-1.177,1.823-0.357,5.004-2.476,6.214
		c-2.37,1.354-5.252-1.221-7.814-0.29c-3.184,1.158-1.736,3.473-2.894,4.92c-1.158,1.447-3.473,0.868-6.657,0.579
		c-3.184-0.289-5.788,3.473-5.788,3.473h100.43c0,0,0.868-1.447-2.894-7.236c-3.762-5.788-8.972-1.736-11.287-1.736
		C112.488,150.563,111.908,147.962,111.907,147.958z"/>
</g>
<g id="Cow">
	<g>
		<path style="fill:#263238;stroke:#263238;stroke-miterlimit:10;" d="M127.65,207.272c0,0-5.22-2.32-9.57-6.38
			c-4.35-4.06-13.34-4.06-19.429-1.74c-6.09,2.32-6.38,3.19-3.77,6.96s6.09,7.54,10.44,8.99c4.35,1.45,11.89-0.29,11.89-0.29
			s7.83-2.32,10.15-3.77C129.68,209.592,127.65,207.272,127.65,207.272z"/>
		<path style="fill:#92E3A9;stroke:#263238;stroke-miterlimit:10;" d="M216.387,356.038c0,0-1.74,22.619-1.45,30.449
			c0.29,7.83,0.29,10.44-2.9,23.199c-3.19,12.76-8.12,17.399-8.7,18.849c-0.58,1.45-0.87,2.9-0.87,2.9s-5.22,0.29-6.96,2.9
			c-1.74,2.61-2.9,4.35-2.9,4.35s6.67,4.64,14.21,2.61c7.54-2.03,11.6-8.12,12.18-8.99c0.58-0.87,3.77,0.58,4.93-6.67
			c1.16-7.25,1.74-16.24,1.74-16.24s3.19-18.27,6.09-26.389c2.9-8.12,9.57-24.359,11.6-36.249"/>
		<path style="fill:#263238;stroke:#263238;stroke-miterlimit:10;" d="M195.508,434.336c-1.74,2.61-2.9,4.35-2.9,4.35
			s6.67,4.64,14.21,2.61c2.537-0.683,4.671-1.828,6.42-3.078c-3.278-4.194-10.77-6.782-10.77-6.782S197.248,431.726,195.508,434.336
			z"/>
		<g>
			<path style="fill:#92E3A9;stroke:#263238;stroke-miterlimit:10;" d="M424.021,333.129c0,0,6.596,14.658,11.526,23.648
				c4.93,8.99,5.51,22.329,4.93,33.059c-0.58,10.73-5.51,27.839-7.54,31.029c-2.03,3.19-5.8,3.19-6.38,5.22
				c-0.58,2.03-0.87,5.22-0.87,5.22s-2.03,0.87-4.06,3.48c-2.03,2.61-3.77,4.93-3.77,4.93s13.05,5.22,20.59,2.61
				c7.54-2.61,10.15-9.57,10.15-9.57s1.16,4.35,5.22-18.85c4.06-23.199,3.19-41.179,6.67-51.909
				c3.48-10.73-4.566-22.198-6.596-28.868s0.29-37.409,0-54.518s-3.77-29.579-5.22-31.319c-1.45-1.74-2.61,0.87-14.21,19.719
				C422.862,285.86,421.992,322.109,424.021,333.129z"/>
			<path style="fill:#263238;stroke:#263238;stroke-miterlimit:10;" d="M438.737,436.524c-3.19-4.64-13.05-5.22-13.05-5.22
				s-2.03,0.87-4.06,3.48c-2.03,2.61-3.77,4.93-3.77,4.93s13.05,5.22,20.59,2.61c1.154-0.399,2.179-0.908,3.11-1.471
				C440.992,439.839,440.069,438.462,438.737,436.524z"/>
		</g>
		<path style="fill:#92E3A9;stroke:#263238;stroke-miterlimit:10;" d="M360.223,331.389c0,0,7.54,8.12,15.37,11.02
			c0,0-2.03,8.12,0,8.99c2.03,0.87,4.35,0.29,4.93-0.87c0.58-1.16,2.03-4.93,2.03-4.93l9.28,1.16c0,0,0.58,6.67,5.22,7.25
			c4.64,0.58,4.64-3.19,4.64-3.19l1.45-4.35l9.28-2.9c0,0,2.61,7.54,4.64,7.83c2.03,0.29,2.32-1.16,2.61-3.19
			c0.29-2.03,0.58-5.8,0.58-5.8s9.57-3.77,15.08-15.949c5.51-12.18,2.9-19.719,4.93-28.709c2.03-8.99,8.99-16.53,8.99-25.809
			c0-9.28-3.77-16.82-3.77-16.82"/>
		<path style="fill:#92E3A9;stroke:#263238;stroke-miterlimit:10;" d="M156.531,292.12c0,0-9.162-2.78-21.632-2.78
			c-12.47,0-17.979-5.22-25.229-9.86c-7.25-4.64-12.76-5.8-22.619-8.12c-9.86-2.32-14.5-13.05-13.34-19.43
			c1.16-6.38,5.51-5.22,14.21-6.96c8.7-1.74,22.039-13.34,22.619-15.66c0.58-2.32-0.87-12.18,4.06-15.66
			c4.93-3.48,14.79-6.38,14.79-6.38s3.48-2.32,5.8-5.8c2.32-3.48,2.03-5.8,9.86-5.8s13.34-0.29,18.27,3.48s5.8,5.51,5.8,8.7
			c0,3.19-0.58,5.51-0.58,5.51s15.08,8.7,39.439,8.7c24.359,0,67.568-3.77,71.628-4.06c4.06-0.29,88.448-12.76,110.777-18.56
			c22.329-5.8,54.518,3.19,62.058,8.7c7.54,5.51,8.41,10.15,6.09,31.609c-2.32,21.459-6.38,76.848-4.06,82.648
			c2.32,5.8,4.35,12.76,3.77,23.199c-0.58,10.44-8.12,19.139-8.12,19.139l1.45-8.12c0,0-4.35,8.41-4.35,11.02
			c0,2.61,0.29,4.06,0.29,4.06s-5.8-7.25-3.48-14.21c2.32-6.96,4.06-15.37,4.06-15.37l-4.35,4.35c0,0,0.58-4.35,2.03-11.6
			c1.45-7.25,1.45-7.83,1.16-15.079c-0.29-7.25-0.87-10.73-0.87-12.76c0-2.03,1.16-41.469,1.16-41.469s-3.19,7.83-14.79,30.739
			c-11.6,22.909-20.589,37.699-17.11,49.589c3.48,11.89,9.57,16.24,6.96,20.879c-2.61,4.64-30.449,49.299-31.319,57.708
			c-0.87,8.41-0.58,11.02-4.35,13.05c-3.77,2.03-8.12,6.38-11.31,6.67c-3.19,0.29-15.08,2.32-14.79-0.87
			c0.29-3.19,1.45-7.25,4.93-9.57c3.48-2.32,6.38-3.19,6.38-3.19s-2.32-2.32,0-5.22c2.32-2.9,10.15-14.5,14.79-28.419
			c4.64-13.92,4.64-31.319,1.45-42.049c-3.19-10.73-4.35-15.08-4.35-15.08l-13.34-10.73c0,0-8.12,7.83-27.549,13.05
			c-19.43,5.22-44.369,7.83-64.378,4.35c-20.009-3.48-21.749-4.35-21.749-4.35s-20.01,15.66-33.059,20.299
			c-13.05,4.64-28.419-3.48-35.959-13.34c-7.54-9.86-14.79-21.749-18.85-36.829C164.769,297.17,162.331,292.41,156.531,292.12z"/>
		<path style="fill:#263238;stroke:#263238;stroke-miterlimit:10;" d="M168.539,213.362c0,0,0.58-2.32,0.58-5.51
			c0-3.19-0.87-4.93-5.8-8.7s-10.44-3.48-18.27-3.48s-7.54,2.32-9.86,5.8c-2.32,3.48-5.8,5.8-5.8,5.8s-9.86,2.9-14.789,6.38
			c-4.93,3.48-3.48,13.34-4.06,15.66c-0.58,2.32-13.92,13.92-22.619,15.66c-8.7,1.74-13.05,0.58-14.21,6.96
			c-1.16,6.38,3.48,17.11,13.34,19.43c9.86,2.32,15.37,3.48,22.619,8.12c7.25,4.64,12.76,9.86,25.229,9.86
			c12.47,0,21.632,2.78,21.632,2.78c5.8,0.29,8.237,5.05,12.297,20.129c1.943,7.215,4.62,13.693,7.706,19.575
			c5.652-3.064,15.334-10.658,21.018-1.356c6.605,10.808,21.015,16.212,32.423,7.806c11.408-8.406,42.03-31.223,36.026-45.033
			c-6.004-13.81-27.62-0.6-20.415-9.006c7.205-8.406-0.6-12.009-3.603-19.214c-3.002-7.205,2.402-15.011,7.806-26.419
			c3.545-7.484-11.773-13.676-22.73-17.05c-6.887,0.31-13.483,0.51-19.083,0.51C183.618,222.062,168.539,213.362,168.539,213.362z"
			/>
		<path style="fill:#263238;stroke:#92E3A9;stroke-miterlimit:10;" d="M160.129,224.382c0,0,3.77-4.06,9.57-5.51
			c5.8-1.45,17.689,1.74,21.169,2.61c3.48,0.87,3.48,3.19-0.29,6.38c-3.77,3.19-11.02,9.28-16.24,11.02
			c-5.22,1.74-16.82-6.67-16.82-6.67"/>
		<path style="fill:#92E3A9;stroke:#263238;stroke-miterlimit:10;" d="M149.689,234.531c0,1.762-1.168,3.19-2.61,3.19
			c-1.441,0-2.61-1.428-2.61-3.19c0-1.762,1.169-3.19,2.61-3.19C148.521,231.342,149.689,232.77,149.689,234.531z"/>
		<path style="fill:#92E3A9;stroke:#263238;stroke-miterlimit:10;" d="M219.287,315.439c0,0,11.89,34.799,17.689,43.499
			c5.8,8.7,13.92,32.769,16.53,40.309c2.61,7.54,1.45,20.88,1.45,24.939c0,4.06-0.29,7.54-1.16,10.44c-0.87,2.9-3.77,3.48-4.06,6.67
			c-0.29,3.19-0.58,5.51-0.58,5.51s4.35,0.58,8.99-0.58c4.64-1.16,9.86-3.48,10.73-6.09c0.87-2.61,0-6.09,0-7.54
			c0-1.45,2.61-1.74,2.03-8.12c-0.58-6.38-5.8-21.749-5.8-31.319s1.74-19.429-2.61-37.989c-4.35-18.559-6.09-29.869-5.22-37.409
			c0.87-7.54,0-11.02,0-11.02"/>
		<path style="fill:#263238;stroke:#263238;stroke-miterlimit:10;" d="M269.224,436.335c-1.769-0.863-3.921-1.627-6.438-1.999
			c-7.83-1.16-10.15,2.9-10.15,2.9l-0.572,0.082c-1.048,1.095-2.154,2.07-2.328,3.978c-0.29,3.19-0.58,5.51-0.58,5.51
			s4.35,0.58,8.99-0.58c4.64-1.16,9.86-3.48,10.73-6.09C269.269,438.956,269.3,437.603,269.224,436.335z"/>
		<path style="fill:#263238;stroke:#263238;stroke-miterlimit:10;" d="M383.984,439.189c-5.055-4.46-12.161-8.623-12.161-8.623
			s-2.9,0.87-6.38,3.19c-3.48,2.32-4.64,6.38-4.93,9.57c-0.29,3.19,11.6,1.16,14.79,0.87
			C377.771,443.971,380.933,441.319,383.984,439.189z"/>
		<path style="fill:#263238;stroke:#263238;stroke-miterlimit:10;" d="M452.441,208.142c-6.538-4.778-31.61-12.166-52.717-10.264
			c-11.712,11.422-27.577,25.793-40.654,26.914c-10.901,0.934-22.603-6.533-31.349-13.937c-24.228,3.848-46.097,7.003-48.116,7.147
			c-1.599,0.114-9.272,0.768-19.472,1.519c0.794,1.434,1.564,3.164,2.266,5.271c4.203,12.609,0.601,22.216,3.002,26.419
			c2.402,4.203,10.808,9.607,15.011,10.207c4.203,0.6,13.81,1.201,13.81,1.201s-3.002,19.214,9.006,25.819
			c12.009,6.605,19.814,6.605,19.814,6.605s0.6,1.201-4.803,8.406c-5.404,7.205-28.22,10.808-21.015,17.413
			s48.035,3.002,56.441-4.203s13.21-21.015,16.812-23.417c3.603-2.402,22.816-9.607,21.616-18.013
			c-1.201-8.406-19.214-15.011-19.214-15.011s-0.6-16.812,8.406-22.216c9.007-5.404,37.827,12.609,38.428,28.821
			c0.6,16.212,4.203,22.216,10.207,18.613c6.004-3.603,17.3-19.875,17.3-19.875l0.113,26.48l7.212-1.288
			c0.992-18.162,2.74-39.475,3.986-51.002C460.85,218.292,459.98,213.652,452.441,208.142z"/>
		<path style="fill:#263238;stroke:#263238;stroke-miterlimit:10;" d="M292.422,287.838c0,0-22.216-19.214-22.816-6.605
			c-0.6,12.609,4.803,19.814,9.007,26.419c4.203,6.605,23.417,0,23.417-6.605S292.422,287.838,292.422,287.838z"/>
		<path style="fill:#263238;stroke:#263238;stroke-miterlimit:10;" d="M250.992,343.077c1.801-1.201-1.201,18.013,4.203,34.825
			c2.504,7.789,6.424,12.481,9.912,15.278c0-0.008-0.001-0.016-0.001-0.024c0-9.57,1.74-19.43-2.61-37.989
			c-4.35-18.559-6.09-29.869-5.22-37.409c0.87-7.54,0-11.02,0-11.02l-37.989,8.7c0,0,11.89,34.799,17.689,43.499
			C242.586,362.291,249.19,344.278,250.992,343.077z"/>
		<path style="fill:#263238;stroke:#263238;stroke-miterlimit:10;" d="M451.571,356.618l-1.45,8.12c0,0,7.54-8.7,8.12-19.139
			c0.58-10.44-1.45-17.4-3.77-23.199c0,0-1.734-3.339-7.54-2.61c0.112,2.806,0.18,4.61,0.138,6.191
			c0.494,0.538,0.865,0.885,0.865,0.885l-1.078,1.92c-0.196,1.555-0.537,3.342-1.085,6.083c-1.45,7.25-2.03,11.6-2.03,11.6
			l4.35-4.35c0,0-1.74,8.41-4.06,15.37c-2.32,6.96,3.48,14.21,3.48,14.21s-0.29-1.45-0.29-4.06S451.571,356.618,451.571,356.618z"/>
		<g>
			<path style="fill:#92E3A9;stroke:#263238;stroke-miterlimit:10;" d="M161.326,206.795c-3.181-3.181-12.192-1.06-15.373-2.65
				s-0.904-8.472-0.904-8.472c-7.83,0-7.54,2.32-9.86,5.8c-2.32,3.48-5.8,5.8-5.8,5.8s-0.075,0.022-0.204,0.061
				c-0.696,1.463-1.318,2.765-1.826,3.709c-2.03,3.77-3.67,1.054-4.73,5.294c-1.06,4.241-10.602,18.023-17.493,23.324
				c-3.941,0.889-6.727,1.314-9.086,1.884c-2.819,1.645-5.661,2.933-8.13,3.427c-8.7,1.74-13.05,0.58-14.21,6.96
				c-0.626,3.444,0.453,8.149,3.115,12.12c0.804,1.921,3.747,8.397,6.729,7.896c3.496-0.587,7.446,0.993,9.929,2.482
				c2.482,1.489,11.523,9.605,16.187,5.051c1.931-1.886,3.977-4.1,5.716-6.051c12.736-12.316,10.771-19.927,7.387-22.828
				c-2.622-2.247-6.371-6.472-5.711-10.756c4.023-2.379,13.435-6.462,16.699-9.726c3.711-3.711,11.132-8.481,12.722-11.132
				C148.074,216.336,164.507,209.975,161.326,206.795z"/>
			<path style="fill:#92E3A9;stroke:#263238;stroke-miterlimit:10;" d="M92.851,260.341c0,0,0-4.93,6.09-4.06
				c6.09,0.87,8.99,4.93,2.9,8.41C95.751,268.171,91.401,264.691,92.851,260.341z"/>
			<path style="fill:#92E3A9;stroke:#263238;stroke-miterlimit:10;" d="M76.031,251.061c0,0,3.48,8.99,1.16,7.54
				C74.871,257.151,73.421,253.381,76.031,251.061z"/>
		</g>
	</g>
</g>
</svg>
